<svg width="609" height="450" viewBox="0 0 609 450" fill="none" xmlns="http://www.w3.org/2000/svg">
<path d="M407.422 56.9541C377.33 39.2403 343.034 29.9316 308.116 30.0004C273.198 30.0691 238.939 39.5128 208.917 57.345L308.5 225L407.422 56.9541Z" fill="#FF6969"/>
<path d="M503.5 225C503.5 191.268 494.75 158.112 478.104 128.773C461.458 99.4338 437.485 74.9146 408.529 57.6108L308.5 225H503.5Z" fill="#F9CB4B"/>
<path d="M405.75 394.019C434.988 377.196 459.362 353.077 476.49 324.016C493.619 294.956 502.916 261.95 503.473 228.222L308.5 225L405.75 394.019Z" fill="#309759"/>
<path d="M212.149 394.533C241.476 411.2 274.625 419.975 308.357 420C342.09 420.025 375.251 411.298 404.603 394.674L308.5 225L212.149 394.533Z" fill="#1E86FF"/>
<path d="M113.5 225C113.5 259.961 122.899 294.28 140.714 324.362C158.528 354.444 184.103 379.184 214.76 395.991L308.5 225L113.5 225Z" fill="#E675FF"/>
<path d="M208.921 57.3424C179.56 74.7811 155.294 99.6245 138.55 129.387C121.805 159.149 113.171 192.787 113.51 226.935L308.5 225L208.921 57.3424Z" fill="#CEA0FF"/>
<line x1="503.5" y1="227.5" x2="113.5" y2="227.5" stroke="white" stroke-width="5"/>
<line x1="403.835" y1="395.125" x2="208.835" y2="57.3751" stroke="white" stroke-width="5"/>
<line x1="408.165" y1="57.377" x2="213.165" y2="395.127" stroke="white" stroke-width="5"/>
<circle cx="308.5" cy="225" r="155" fill="white"/>
<path d="M274.904 2.4H278.9C280.934 2.4 283.508 3.444 283.508 6.18C283.508 8.142 282.176 9.222 280.772 9.69C281.888 11.256 283.76 13.83 284.624 15H281.384L277.928 9.978H277.478V15H274.904V2.4ZM277.478 4.578V7.8H278.486C279.782 7.8 280.754 7.332 280.754 6.234C280.754 5.244 279.98 4.578 278.828 4.578H277.478ZM294.121 10.896H287.461C287.641 12.192 288.487 13.164 289.837 13.164C291.061 13.164 291.691 12.66 292.303 11.76L293.977 12.894C292.897 14.46 291.691 15.216 289.657 15.216C286.795 15.216 284.869 13.218 284.869 10.374C284.869 7.512 286.957 5.316 289.675 5.316C292.303 5.316 294.247 7.17 294.247 9.69C294.247 10.068 294.193 10.518 294.121 10.896ZM287.587 9.15H291.637C291.583 8.016 290.791 7.314 289.747 7.314C288.523 7.314 287.857 8.088 287.587 9.15ZM304.055 15H301.841L301.643 14.19C301.031 14.946 300.077 15.216 299.069 15.216C297.305 15.216 295.667 14.154 295.667 12.21C295.667 9.888 297.827 9.15 299.789 9.15C300.311 9.15 300.905 9.222 301.499 9.348V9.204C301.499 8.016 301.013 7.296 299.627 7.296C298.547 7.296 297.593 7.692 296.765 8.124L296.081 6.288C297.287 5.694 298.745 5.316 300.149 5.316C302.777 5.316 304.055 6.846 304.055 9.312V15ZM301.499 12.624V10.878C301.013 10.77 300.599 10.716 300.203 10.716C299.267 10.716 298.169 11.058 298.169 12.174C298.169 13.002 298.853 13.434 299.609 13.434C300.347 13.434 300.959 13.11 301.499 12.624ZM309.009 1.5V15H306.453V1.5H309.009ZM314.054 15H311.498V5.532H314.054V15ZM314.054 4.218H311.498V2.04H314.054V4.218ZM323.095 6.558L321.691 8.106C321.205 7.674 320.539 7.314 319.819 7.314C319.333 7.314 318.901 7.584 318.901 8.034C318.901 8.628 319.603 8.934 320.395 9.258C321.619 9.762 323.167 10.374 323.167 12.174C323.167 14.262 321.367 15.216 319.531 15.216C318.055 15.216 316.759 14.64 315.715 13.596L317.173 12.084C317.893 12.786 318.487 13.2 319.405 13.2C319.927 13.2 320.611 12.948 320.611 12.372C320.611 11.706 319.747 11.418 318.811 11.004C317.677 10.518 316.435 9.87 316.435 8.214C316.435 6.288 318.091 5.316 319.819 5.316C321.079 5.316 322.213 5.73 323.095 6.558ZM330.285 7.656H327.873V11.328C327.873 11.616 327.873 11.868 327.909 12.138C327.981 12.696 328.197 13.038 328.737 13.038C329.133 13.038 329.439 12.93 329.763 12.768L330.555 14.658C329.943 15.018 329.043 15.216 328.305 15.216C326.829 15.216 325.839 14.406 325.497 13.182C325.353 12.714 325.317 12.156 325.317 11.598V7.656H324.183V5.532H325.317L325.713 3.444H327.873V5.532H330.285V7.656ZM334.568 15H332.012V5.532H334.568V15ZM334.568 4.218H332.012V2.04H334.568V4.218ZM343.248 12.3L344.616 14.046C343.68 14.874 342.564 15.216 341.214 15.216C338.424 15.216 336.408 13.2 336.408 10.266C336.408 7.512 338.406 5.316 341.286 5.316C342.582 5.316 343.68 5.712 344.616 6.486L343.302 8.268C342.78 7.782 342.204 7.512 341.466 7.512C340.026 7.512 339.018 8.754 339.018 10.266C339.018 11.85 340.08 13.02 341.43 13.02C342.132 13.02 342.708 12.822 343.248 12.3Z" fill="#252A31"/>
<path d="M302.528 41.5H308.078C310.903 41.5 314.478 42.95 314.478 46.75C314.478 49.475 312.628 50.975 310.678 51.625C312.228 53.8 314.828 57.375 316.028 59H311.528L306.728 52.025H306.103V59H302.528V41.5ZM306.103 44.525V49H307.503C309.303 49 310.653 48.35 310.653 46.825C310.653 45.45 309.578 44.525 307.978 44.525H306.103Z" fill="white"/>
<path d="M501.478 140H498.904V127.4H501.478V140ZM504.121 130.532H506.335L506.533 131.828C507.289 130.766 508.423 130.316 509.467 130.316C510.493 130.316 511.393 130.802 511.987 131.558C512.725 132.512 512.833 133.736 512.833 135.086V140H510.277V135.212C510.277 134.51 510.259 133.718 509.989 133.178C509.755 132.71 509.287 132.512 508.729 132.512C507.973 132.512 507.145 132.944 506.677 133.718V140H504.121V130.532ZM520.792 130.532H523.636L519.748 140H517.66L514.096 130.532H516.922L518.83 136.364H518.866L520.792 130.532ZM533.467 135.896H526.807C526.987 137.192 527.833 138.164 529.183 138.164C530.407 138.164 531.037 137.66 531.649 136.76L533.323 137.894C532.243 139.46 531.037 140.216 529.003 140.216C526.141 140.216 524.215 138.218 524.215 135.374C524.215 132.512 526.303 130.316 529.021 130.316C531.649 130.316 533.593 132.17 533.593 134.69C533.593 135.068 533.539 135.518 533.467 135.896ZM526.933 134.15H530.983C530.929 133.016 530.137 132.314 529.093 132.314C527.869 132.314 527.203 133.088 526.933 134.15ZM541.997 131.558L540.593 133.106C540.107 132.674 539.441 132.314 538.721 132.314C538.235 132.314 537.803 132.584 537.803 133.034C537.803 133.628 538.505 133.934 539.297 134.258C540.521 134.762 542.069 135.374 542.069 137.174C542.069 139.262 540.269 140.216 538.433 140.216C536.957 140.216 535.661 139.64 534.617 138.596L536.075 137.084C536.795 137.786 537.389 138.2 538.307 138.2C538.829 138.2 539.513 137.948 539.513 137.372C539.513 136.706 538.649 136.418 537.713 136.004C536.579 135.518 535.337 134.87 535.337 133.214C535.337 131.288 536.993 130.316 538.721 130.316C539.981 130.316 541.115 130.73 541.997 131.558ZM549.187 132.656H546.775V136.328C546.775 136.616 546.775 136.868 546.811 137.138C546.883 137.696 547.099 138.038 547.639 138.038C548.035 138.038 548.341 137.93 548.665 137.768L549.457 139.658C548.845 140.018 547.945 140.216 547.207 140.216C545.731 140.216 544.741 139.406 544.399 138.182C544.255 137.714 544.219 137.156 544.219 136.598V132.656H543.085V130.532H544.219L544.615 128.444H546.775V130.532H549.187V132.656ZM553.47 140H550.914V130.532H553.47V140ZM553.47 129.218H550.914V127.04H553.47V129.218ZM565.067 130.532V139.496C565.067 140.522 564.869 141.35 564.473 142.016C563.645 143.456 562.025 144.086 560.297 144.086C558.839 144.086 557.255 143.672 555.923 142.79L556.859 140.684C557.939 141.494 559.271 141.89 560.207 141.89C561.539 141.89 562.511 141.17 562.511 139.658V138.794C561.809 139.694 560.639 140 559.721 140C557.219 140 555.311 137.858 555.311 135.122C555.311 132.476 557.183 130.316 559.757 130.316C560.711 130.316 561.953 130.658 562.637 131.648L562.853 130.532H565.067ZM562.511 136.562V133.538C561.863 132.782 561.107 132.512 560.315 132.512C558.677 132.512 557.921 133.88 557.921 135.194C557.921 136.58 558.821 137.804 560.279 137.804C561.071 137.804 561.953 137.498 562.511 136.562ZM575.428 140H573.214L573.016 139.19C572.404 139.946 571.45 140.216 570.442 140.216C568.678 140.216 567.04 139.154 567.04 137.21C567.04 134.888 569.2 134.15 571.162 134.15C571.684 134.15 572.278 134.222 572.872 134.348V134.204C572.872 133.016 572.386 132.296 571 132.296C569.92 132.296 568.966 132.692 568.138 133.124L567.454 131.288C568.66 130.694 570.118 130.316 571.522 130.316C574.15 130.316 575.428 131.846 575.428 134.312V140ZM572.872 137.624V135.878C572.386 135.77 571.972 135.716 571.576 135.716C570.64 135.716 569.542 136.058 569.542 137.174C569.542 138.002 570.226 138.434 570.982 138.434C571.72 138.434 572.332 138.11 572.872 137.624ZM582.902 132.656H580.49V136.328C580.49 136.616 580.49 136.868 580.526 137.138C580.598 137.696 580.814 138.038 581.354 138.038C581.75 138.038 582.056 137.93 582.38 137.768L583.172 139.658C582.56 140.018 581.66 140.216 580.922 140.216C579.446 140.216 578.456 139.406 578.114 138.182C577.97 137.714 577.934 137.156 577.934 136.598V132.656H576.8V130.532H577.934L578.33 128.444H580.49V130.532H582.902V132.656ZM587.185 140H584.629V130.532H587.185V140ZM587.185 129.218H584.629V127.04H587.185V129.218ZM595.218 130.532H598.062L594.174 140H592.086L588.522 130.532H591.348L593.256 136.364H593.292L595.218 130.532ZM607.893 135.896H601.233C601.413 137.192 602.259 138.164 603.609 138.164C604.833 138.164 605.463 137.66 606.075 136.76L607.749 137.894C606.669 139.46 605.463 140.216 603.429 140.216C600.567 140.216 598.641 138.218 598.641 135.374C598.641 132.512 600.729 130.316 603.447 130.316C606.075 130.316 608.019 132.17 608.019 134.69C608.019 135.068 607.965 135.518 607.893 135.896ZM601.359 134.15H605.409C605.355 133.016 604.563 132.314 603.519 132.314C602.295 132.314 601.629 133.088 601.359 134.15Z" fill="#252A31"/>
<path d="M462.29 146H458.715V128.5H462.29V146Z" fill="white"/>
<path d="M502.686 338H499.716L498.906 335.66H494.424L493.578 338H490.716L495.864 325.4H497.952L502.686 338ZM496.71 329.324L495.18 333.554H498.186L496.728 329.324H496.71ZM506.366 328.532L506.564 329.792C507.104 328.91 507.842 328.316 508.778 328.316C509.246 328.316 509.66 328.406 510.002 328.532L509.39 330.764C509.12 330.62 508.814 330.548 508.49 330.548C507.752 330.548 507.086 330.962 506.708 331.592V338H504.152V328.532H506.366ZM516.769 330.656H514.357V334.328C514.357 334.616 514.357 334.868 514.393 335.138C514.465 335.696 514.681 336.038 515.221 336.038C515.617 336.038 515.923 335.93 516.247 335.768L517.039 337.658C516.427 338.018 515.527 338.216 514.789 338.216C513.313 338.216 512.323 337.406 511.981 336.182C511.837 335.714 511.801 335.156 511.801 334.598V330.656H510.667V328.532H511.801L512.197 326.444H514.357V328.532H516.769V330.656ZM521.052 338H518.496V328.532H521.052V338ZM521.052 327.218H518.496V325.04H521.052V327.218ZM530.093 329.558L528.689 331.106C528.203 330.674 527.537 330.314 526.817 330.314C526.331 330.314 525.899 330.584 525.899 331.034C525.899 331.628 526.601 331.934 527.393 332.258C528.617 332.762 530.165 333.374 530.165 335.174C530.165 337.262 528.365 338.216 526.529 338.216C525.053 338.216 523.757 337.64 522.713 336.596L524.171 335.084C524.891 335.786 525.485 336.2 526.403 336.2C526.925 336.2 527.609 335.948 527.609 335.372C527.609 334.706 526.745 334.418 525.809 334.004C524.675 333.518 523.433 332.87 523.433 331.214C523.433 329.288 525.089 328.316 526.817 328.316C528.077 328.316 529.211 328.73 530.093 329.558ZM537.283 330.656H534.871V334.328C534.871 334.616 534.871 334.868 534.907 335.138C534.979 335.696 535.195 336.038 535.735 336.038C536.131 336.038 536.437 335.93 536.761 335.768L537.553 337.658C536.941 338.018 536.041 338.216 535.303 338.216C533.827 338.216 532.837 337.406 532.495 336.182C532.351 335.714 532.315 335.156 532.315 334.598V330.656H531.181V328.532H532.315L532.711 326.444H534.871V328.532H537.283V330.656ZM541.566 338H539.01V328.532H541.566V338ZM541.566 327.218H539.01V325.04H541.566V327.218ZM550.247 335.3L551.615 337.046C550.679 337.874 549.563 338.216 548.213 338.216C545.423 338.216 543.406 336.2 543.406 333.266C543.406 330.512 545.405 328.316 548.285 328.316C549.581 328.316 550.679 328.712 551.615 329.486L550.301 331.268C549.779 330.782 549.203 330.512 548.465 330.512C547.025 330.512 546.017 331.754 546.017 333.266C546.017 334.85 547.079 336.02 548.429 336.02C549.131 336.02 549.707 335.822 550.247 335.3Z" fill="#252A31"/>
<path d="M468.807 317H464.682L463.557 313.75H457.332L456.157 317H452.182L459.332 299.5H462.232L468.807 317ZM460.507 304.95L458.382 310.825H462.557L460.532 304.95H460.507Z" fill="white"/>
<path d="M290.924 435.514C290.222 434.92 289.286 434.38 288.314 434.38C287.45 434.38 286.676 434.812 286.676 435.64C286.676 436.612 287.864 436.882 288.836 437.224C290.618 437.836 292.76 438.664 292.76 441.31C292.76 444.046 290.186 445.216 287.99 445.216C286.046 445.216 284.534 444.478 283.166 443.11L284.876 441.436C285.902 442.426 286.694 443.02 288.008 443.02C289.016 443.02 290.006 442.534 290.006 441.418C290.006 440.338 288.854 439.924 287.576 439.456C285.938 438.844 284.102 438.124 284.102 435.712C284.102 433.318 286.136 432.184 288.224 432.184C289.844 432.184 291.122 432.706 292.4 433.678L290.924 435.514ZM299.031 435.316C301.911 435.316 303.981 437.476 303.981 440.266C303.981 443.056 301.911 445.216 299.031 445.216C296.133 445.216 294.063 443.056 294.063 440.266C294.063 437.476 296.133 435.316 299.031 435.316ZM301.371 440.266C301.371 438.718 300.435 437.512 299.031 437.512C297.627 437.512 296.673 438.718 296.673 440.266C296.673 441.814 297.627 443.02 299.031 443.02C300.435 443.02 301.371 441.814 301.371 440.266ZM312.012 442.3L313.38 444.046C312.444 444.874 311.328 445.216 309.978 445.216C307.188 445.216 305.172 443.2 305.172 440.266C305.172 437.512 307.17 435.316 310.05 435.316C311.346 435.316 312.444 435.712 313.38 436.486L312.066 438.268C311.544 437.782 310.968 437.512 310.23 437.512C308.79 437.512 307.782 438.754 307.782 440.266C307.782 441.85 308.844 443.02 310.194 443.02C310.896 443.02 311.472 442.822 312.012 442.3ZM317.569 445H315.013V435.532H317.569V445ZM317.569 434.218H315.013V432.04H317.569V434.218ZM328.014 445H325.8L325.602 444.19C324.99 444.946 324.036 445.216 323.028 445.216C321.264 445.216 319.626 444.154 319.626 442.21C319.626 439.888 321.786 439.15 323.748 439.15C324.27 439.15 324.864 439.222 325.458 439.348V439.204C325.458 438.016 324.972 437.296 323.586 437.296C322.506 437.296 321.552 437.692 320.724 438.124L320.04 436.288C321.246 435.694 322.704 435.316 324.108 435.316C326.736 435.316 328.014 436.846 328.014 439.312V445ZM325.458 442.624V440.878C324.972 440.77 324.558 440.716 324.162 440.716C323.226 440.716 322.128 441.058 322.128 442.174C322.128 443.002 322.812 443.434 323.568 443.434C324.306 443.434 324.918 443.11 325.458 442.624ZM332.968 431.5V445H330.412V431.5H332.968Z" fill="#252A31"/>
<path d="M312.583 394.825C311.608 394 310.308 393.25 308.958 393.25C307.758 393.25 306.683 393.85 306.683 395C306.683 396.35 308.333 396.725 309.683 397.2C312.158 398.05 315.133 399.2 315.133 402.875C315.133 406.675 311.558 408.3 308.508 408.3C305.808 408.3 303.708 407.275 301.808 405.375L304.183 403.05C305.608 404.425 306.708 405.25 308.533 405.25C309.933 405.25 311.308 404.575 311.308 403.025C311.308 401.525 309.708 400.95 307.933 400.3C305.658 399.45 303.108 398.45 303.108 395.1C303.108 391.775 305.933 390.2 308.833 390.2C311.083 390.2 312.858 390.925 314.633 392.275L312.583 394.825Z" fill="white"/>
<path d="M30.986 338H22.904V325.4H30.986V327.578H25.478V330.422H30.986V332.6H25.478V335.822H30.986V338ZM33.1834 328.532H35.3974L35.5954 329.828C36.3514 328.766 37.4854 328.316 38.5294 328.316C39.5554 328.316 40.4554 328.802 41.0494 329.558C41.7874 330.512 41.8954 331.736 41.8954 333.086V338H39.3394V333.212C39.3394 332.51 39.3214 331.718 39.0514 331.178C38.8174 330.71 38.3494 330.512 37.7914 330.512C37.0354 330.512 36.2074 330.944 35.7394 331.718V338H33.1834V328.532ZM49.3864 330.656H46.9744V334.328C46.9744 334.616 46.9744 334.868 47.0104 335.138C47.0824 335.696 47.2984 336.038 47.8384 336.038C48.2344 336.038 48.5404 335.93 48.8644 335.768L49.6564 337.658C49.0444 338.018 48.1444 338.216 47.4064 338.216C45.9304 338.216 44.9404 337.406 44.5984 336.182C44.4544 335.714 44.4184 335.156 44.4184 334.598V330.656H43.2844V328.532H44.4184L44.8144 326.444H46.9744V328.532H49.3864V330.656ZM59.7171 333.896H53.0571C53.2371 335.192 54.0831 336.164 55.4331 336.164C56.6571 336.164 57.2871 335.66 57.8991 334.76L59.5731 335.894C58.4931 337.46 57.2871 338.216 55.2531 338.216C52.3911 338.216 50.4651 336.218 50.4651 333.374C50.4651 330.512 52.5531 328.316 55.2711 328.316C57.8991 328.316 59.8431 330.17 59.8431 332.69C59.8431 333.068 59.7891 333.518 59.7171 333.896ZM53.1831 332.15H57.2331C57.1791 331.016 56.3871 330.314 55.3431 330.314C54.1191 330.314 53.4531 331.088 53.1831 332.15ZM63.9091 328.532L64.1071 329.792C64.6471 328.91 65.3851 328.316 66.3211 328.316C66.7891 328.316 67.2031 328.406 67.5451 328.532L66.9331 330.764C66.6631 330.62 66.3571 330.548 66.0331 330.548C65.2951 330.548 64.6291 330.962 64.2511 331.592V338H61.6951V328.532H63.9091ZM68.4275 328.532H70.6415L70.8395 329.702C71.5235 328.676 72.8015 328.316 73.7735 328.316C76.2935 328.316 78.1835 330.548 78.1835 333.302C78.1835 335.966 76.3115 338.216 73.7555 338.216C72.8375 338.216 71.7035 337.91 70.9835 337.082V342.5H68.4275V328.532ZM70.9835 331.772V334.994C71.6135 335.75 72.3695 336.02 73.1795 336.02C74.8175 336.02 75.5735 334.562 75.5735 333.23C75.5735 331.826 74.6915 330.512 73.2155 330.512C72.4055 330.512 71.5415 330.836 70.9835 331.772ZM82.2255 328.532L82.4235 329.792C82.9635 328.91 83.7015 328.316 84.6375 328.316C85.1055 328.316 85.5195 328.406 85.8615 328.532L85.2495 330.764C84.9795 330.62 84.6735 330.548 84.3495 330.548C83.6115 330.548 82.9455 330.962 82.5675 331.592V338H80.0115V328.532H82.2255ZM89.3 338H86.744V328.532H89.3V338ZM89.3 327.218H86.744V325.04H89.3V327.218ZM98.3409 329.558L96.9369 331.106C96.4509 330.674 95.7849 330.314 95.0649 330.314C94.5789 330.314 94.1469 330.584 94.1469 331.034C94.1469 331.628 94.8489 331.934 95.6409 332.258C96.8649 332.762 98.4129 333.374 98.4129 335.174C98.4129 337.262 96.6129 338.216 94.7769 338.216C93.3009 338.216 92.0049 337.64 90.9609 336.596L92.4189 335.084C93.1389 335.786 93.7329 336.2 94.6509 336.2C95.1729 336.2 95.8569 335.948 95.8569 335.372C95.8569 334.706 94.9929 334.418 94.0569 334.004C92.9229 333.518 91.6809 332.87 91.6809 331.214C91.6809 329.288 93.3369 328.316 95.0649 328.316C96.3249 328.316 97.4589 328.73 98.3409 329.558ZM103.011 338H100.455V328.532H103.011V338ZM103.011 327.218H100.455V325.04H103.011V327.218ZM105.5 328.532H107.714L107.912 329.828C108.668 328.766 109.802 328.316 110.846 328.316C111.872 328.316 112.772 328.802 113.366 329.558C114.104 330.512 114.212 331.736 114.212 333.086V338H111.656V333.212C111.656 332.51 111.638 331.718 111.368 331.178C111.134 330.71 110.666 330.512 110.108 330.512C109.352 330.512 108.524 330.944 108.056 331.718V338H105.5V328.532ZM125.735 328.532V337.496C125.735 338.522 125.537 339.35 125.141 340.016C124.313 341.456 122.693 342.086 120.965 342.086C119.507 342.086 117.923 341.672 116.591 340.79L117.527 338.684C118.607 339.494 119.939 339.89 120.875 339.89C122.207 339.89 123.179 339.17 123.179 337.658V336.794C122.477 337.694 121.307 338 120.389 338C117.887 338 115.979 335.858 115.979 333.122C115.979 330.476 117.851 328.316 120.425 328.316C121.379 328.316 122.621 328.658 123.305 329.648L123.521 328.532H125.735ZM123.179 334.562V331.538C122.531 330.782 121.775 330.512 120.983 330.512C119.345 330.512 118.589 331.88 118.589 333.194C118.589 334.58 119.489 335.804 120.947 335.804C121.739 335.804 122.621 335.498 123.179 334.562Z" fill="#252A31"/>
<path d="M162.924 323H151.699V305.5H162.924V308.525H155.274V312.475H162.924V315.5H155.274V319.975H162.924V323Z" fill="white"/>
<path d="M3.136 133.7C3.136 136.22 4.63 137.966 7.096 137.966C8.05 137.966 9.004 137.588 9.778 136.922L11.218 138.794C9.994 139.73 8.536 140.216 6.988 140.216C3.208 140.216 0.382 137.552 0.382 133.7C0.382 130.01 3.388 127.184 7.096 127.184C8.536 127.184 9.724 127.634 10.966 128.408L9.724 130.406C8.968 129.83 8.068 129.434 7.096 129.434C4.81 129.434 3.136 131.306 3.136 133.7ZM16.9448 130.316C19.8248 130.316 21.8948 132.476 21.8948 135.266C21.8948 138.056 19.8248 140.216 16.9448 140.216C14.0468 140.216 11.9768 138.056 11.9768 135.266C11.9768 132.476 14.0468 130.316 16.9448 130.316ZM19.2848 135.266C19.2848 133.718 18.3488 132.512 16.9448 132.512C15.5408 132.512 14.5868 133.718 14.5868 135.266C14.5868 136.814 15.5408 138.02 16.9448 138.02C18.3488 138.02 19.2848 136.814 19.2848 135.266ZM23.7342 130.532H25.9482L26.1462 131.828C26.9022 130.766 28.0362 130.316 29.0802 130.316C30.1062 130.316 31.0062 130.802 31.6002 131.558C32.3382 132.512 32.4462 133.736 32.4462 135.086V140H29.8902V135.212C29.8902 134.51 29.8722 133.718 29.6022 133.178C29.3682 132.71 28.9002 132.512 28.3422 132.512C27.5862 132.512 26.7582 132.944 26.2902 133.718V140H23.7342V130.532ZM40.4051 130.532H43.2491L39.3611 140H37.2731L33.7091 130.532H36.5351L38.4431 136.364H38.4791L40.4051 130.532ZM53.0804 135.896H46.4204C46.6004 137.192 47.4464 138.164 48.7964 138.164C50.0204 138.164 50.6504 137.66 51.2624 136.76L52.9364 137.894C51.8564 139.46 50.6504 140.216 48.6164 140.216C45.7544 140.216 43.8284 138.218 43.8284 135.374C43.8284 132.512 45.9164 130.316 48.6344 130.316C51.2624 130.316 53.2064 132.17 53.2064 134.69C53.2064 135.068 53.1524 135.518 53.0804 135.896ZM46.5464 134.15H50.5964C50.5424 133.016 49.7504 132.314 48.7064 132.314C47.4824 132.314 46.8164 133.088 46.5464 134.15ZM55.0584 130.532H57.2724L57.4704 131.828C58.2264 130.766 59.3604 130.316 60.4044 130.316C61.4304 130.316 62.3304 130.802 62.9244 131.558C63.6624 132.512 63.7704 133.736 63.7704 135.086V140H61.2144V135.212C61.2144 134.51 61.1964 133.718 60.9264 133.178C60.6924 132.71 60.2244 132.512 59.6664 132.512C58.9104 132.512 58.0824 132.944 57.6144 133.718V140H55.0584V130.532ZM71.2614 132.656H68.8494V136.328C68.8494 136.616 68.8494 136.868 68.8854 137.138C68.9574 137.696 69.1734 138.038 69.7134 138.038C70.1094 138.038 70.4154 137.93 70.7394 137.768L71.5314 139.658C70.9194 140.018 70.0194 140.216 69.2814 140.216C67.8054 140.216 66.8154 139.406 66.4734 138.182C66.3294 137.714 66.2934 137.156 66.2934 136.598V132.656H65.1594V130.532H66.2934L66.6894 128.444H68.8494V130.532H71.2614V132.656ZM75.5441 140H72.9881V130.532H75.5441V140ZM75.5441 129.218H72.9881V127.04H75.5441V129.218ZM82.353 130.316C85.233 130.316 87.303 132.476 87.303 135.266C87.303 138.056 85.233 140.216 82.353 140.216C79.455 140.216 77.385 138.056 77.385 135.266C77.385 132.476 79.455 130.316 82.353 130.316ZM84.693 135.266C84.693 133.718 83.757 132.512 82.353 132.512C80.949 132.512 79.995 133.718 79.995 135.266C79.995 136.814 80.949 138.02 82.353 138.02C83.757 138.02 84.693 136.814 84.693 135.266ZM89.1424 130.532H91.3564L91.5544 131.828C92.3104 130.766 93.4444 130.316 94.4884 130.316C95.5144 130.316 96.4144 130.802 97.0084 131.558C97.7464 132.512 97.8544 133.736 97.8544 135.086V140H95.2984V135.212C95.2984 134.51 95.2804 133.718 95.0104 133.178C94.7764 132.71 94.3084 132.512 93.7504 132.512C92.9944 132.512 92.1664 132.944 91.6984 133.718V140H89.1424V130.532ZM108.225 140H106.011L105.813 139.19C105.201 139.946 104.247 140.216 103.239 140.216C101.475 140.216 99.8373 139.154 99.8373 137.21C99.8373 134.888 101.997 134.15 103.959 134.15C104.481 134.15 105.075 134.222 105.669 134.348V134.204C105.669 133.016 105.183 132.296 103.797 132.296C102.717 132.296 101.763 132.692 100.935 133.124L100.251 131.288C101.457 130.694 102.915 130.316 104.319 130.316C106.947 130.316 108.225 131.846 108.225 134.312V140ZM105.669 137.624V135.878C105.183 135.77 104.769 135.716 104.373 135.716C103.437 135.716 102.339 136.058 102.339 137.174C102.339 138.002 103.023 138.434 103.779 138.434C104.517 138.434 105.129 138.11 105.669 137.624ZM113.179 126.5V140H110.623V126.5H113.179Z" fill="#252A31"/>
<path d="M152.615 139.25C152.615 142.75 154.69 145.175 158.115 145.175C159.44 145.175 160.765 144.65 161.84 143.725L163.84 146.325C162.14 147.625 160.115 148.3 157.965 148.3C152.715 148.3 148.79 144.6 148.79 139.25C148.79 134.125 152.965 130.2 158.115 130.2C160.115 130.2 161.765 130.825 163.49 131.9L161.765 134.675C160.715 133.875 159.465 133.325 158.115 133.325C154.94 133.325 152.615 135.925 152.615 139.25Z" fill="white"/>
<path d="M232.498 201.4C232.498 203.64 233.826 205.192 236.018 205.192C236.866 205.192 237.714 204.856 238.402 204.264L239.682 205.928C238.594 206.76 237.298 207.192 235.922 207.192C232.562 207.192 230.05 204.824 230.05 201.4C230.05 198.12 232.722 195.608 236.018 195.608C237.298 195.608 238.354 196.008 239.458 196.696L238.354 198.472C237.682 197.96 236.882 197.608 236.018 197.608C233.986 197.608 232.498 199.272 232.498 201.4ZM243.439 195V207H241.167V195H243.439ZM247.923 207H245.651V198.584H247.923V207ZM247.923 197.416H245.651V195.48H247.923V197.416ZM255.639 204.6L256.855 206.152C256.023 206.888 255.031 207.192 253.831 207.192C251.351 207.192 249.559 205.4 249.559 202.792C249.559 200.344 251.335 198.392 253.895 198.392C255.047 198.392 256.023 198.744 256.855 199.432L255.687 201.016C255.223 200.584 254.711 200.344 254.055 200.344C252.775 200.344 251.879 201.448 251.879 202.792C251.879 204.2 252.823 205.24 254.023 205.24C254.647 205.24 255.159 205.064 255.639 204.6ZM266.115 207H263.331L261.395 203.88L260.579 204.824V207H258.307V195H260.579V202.008H260.611L263.331 198.584H265.923L262.915 202.104L266.115 207ZM274.878 198.712C277.262 198.712 279.038 200.584 279.038 202.952C279.038 205.32 277.262 207.192 274.878 207.192C272.478 207.192 270.718 205.32 270.718 202.952C270.718 200.584 272.478 198.712 274.878 198.712ZM277.358 202.952C277.358 201.432 276.318 200.2 274.878 200.2C273.438 200.2 272.398 201.432 272.398 202.952C272.398 204.456 273.438 205.704 274.878 205.704C276.318 205.704 277.358 204.456 277.358 202.952ZM280.952 198.904H282.52L282.568 200.184C283.176 199.24 284.152 198.712 285.192 198.712C286.264 198.712 287.016 199.096 287.496 199.736C288.056 200.504 288.216 201.576 288.216 202.792V207H286.568V202.936C286.568 202.2 286.536 201.384 286.184 200.824C285.944 200.44 285.512 200.2 284.856 200.2C283.992 200.2 283.128 200.792 282.6 201.64V207H280.952V198.904ZM298.67 200.328H296.446V203.848C296.446 204.056 296.446 204.248 296.462 204.488C296.51 205.256 296.766 205.704 297.486 205.704C297.838 205.704 298.142 205.608 298.398 205.48L298.878 206.776C298.446 207.016 297.822 207.16 297.262 207.16C296.094 207.16 295.358 206.616 295.038 205.784C294.862 205.336 294.798 204.776 294.798 204.184V200.328H293.742V198.904H294.798L294.878 197H296.446V198.904H298.67V200.328ZM302.006 195V200.152C302.614 199.24 303.574 198.712 304.598 198.712C305.67 198.712 306.422 199.096 306.902 199.736C307.462 200.504 307.622 201.576 307.622 202.792V207H305.974V202.936C305.974 202.2 305.942 201.384 305.59 200.824C305.35 200.44 304.918 200.2 304.262 200.2C303.398 200.2 302.534 200.792 302.006 201.64V207H300.358V195H302.006ZM311.132 203.368C311.244 204.696 312.14 205.8 313.58 205.8C314.652 205.8 315.436 205.4 315.932 204.52L317.084 205.272C316.252 206.584 315.164 207.192 313.5 207.192C310.956 207.192 309.468 205.352 309.468 202.968C309.468 200.552 311.228 198.712 313.5 198.712C315.676 198.712 317.26 200.312 317.26 202.472C317.26 202.76 317.228 203.128 317.18 203.368H311.132ZM315.548 202.104C315.484 201 314.668 200.088 313.532 200.088C312.284 200.088 311.516 200.968 311.228 202.104H315.548ZM328.434 205.128L329.266 206.344C328.626 206.888 327.698 207.192 326.69 207.192C324.354 207.192 322.546 205.496 322.546 202.952C322.546 200.584 324.37 198.712 326.754 198.712C327.682 198.712 328.498 198.984 329.186 199.48L328.386 200.776C327.922 200.424 327.346 200.2 326.754 200.2C325.346 200.2 324.226 201.432 324.226 202.952C324.226 204.6 325.41 205.704 326.754 205.704C327.298 205.704 327.986 205.48 328.434 205.128ZM334.456 198.712C336.84 198.712 338.616 200.584 338.616 202.952C338.616 205.32 336.84 207.192 334.456 207.192C332.056 207.192 330.296 205.32 330.296 202.952C330.296 200.584 332.056 198.712 334.456 198.712ZM336.936 202.952C336.936 201.432 335.896 200.2 334.456 200.2C333.016 200.2 331.976 201.432 331.976 202.952C331.976 204.456 333.016 205.704 334.456 205.704C335.896 205.704 336.936 204.456 336.936 202.952ZM342.178 195V207H340.53V195H342.178ZM348.253 198.712C350.637 198.712 352.413 200.584 352.413 202.952C352.413 205.32 350.637 207.192 348.253 207.192C345.853 207.192 344.093 205.32 344.093 202.952C344.093 200.584 345.853 198.712 348.253 198.712ZM350.733 202.952C350.733 201.432 349.693 200.2 348.253 200.2C346.813 200.2 345.773 201.432 345.773 202.952C345.773 204.456 346.813 205.704 348.253 205.704C349.693 205.704 350.733 204.456 350.733 202.952ZM361.511 207H359.943L359.895 205.72C359.287 206.664 358.311 207.192 357.271 207.192C356.199 207.192 355.447 206.808 354.967 206.168C354.407 205.4 354.247 204.328 354.247 203.112V198.904H355.895V202.968C355.895 203.704 355.927 204.52 356.279 205.08C356.519 205.464 356.951 205.704 357.607 205.704C358.471 205.704 359.335 205.112 359.863 204.264V198.904H361.511V207ZM365.645 198.904L365.693 200.168C366.173 199.32 366.893 198.712 367.741 198.712C368.093 198.712 368.365 198.744 368.669 198.824L368.333 200.488C368.093 200.36 367.869 200.312 367.565 200.312C366.781 200.312 366.173 200.776 365.725 201.56V207H364.077V198.904H365.645ZM370.882 203.368C370.994 204.696 371.89 205.8 373.33 205.8C374.402 205.8 375.186 205.4 375.682 204.52L376.834 205.272C376.002 206.584 374.914 207.192 373.25 207.192C370.706 207.192 369.218 205.352 369.218 202.968C369.218 200.552 370.978 198.712 373.25 198.712C375.426 198.712 377.01 200.312 377.01 202.472C377.01 202.76 376.978 203.128 376.93 203.368H370.882ZM375.298 202.104C375.234 201 374.418 200.088 373.282 200.088C372.034 200.088 371.266 200.968 370.978 202.104H375.298ZM386.456 195V207H384.888L384.84 205.928C384.264 206.776 383.208 207.192 382.264 207.192C379.976 207.192 378.296 205.304 378.296 202.936C378.296 200.76 379.896 198.712 382.296 198.712C383.208 198.712 384.168 199.096 384.808 199.768V195H386.456ZM384.808 201.368C384.264 200.6 383.368 200.2 382.568 200.2C380.808 200.2 379.976 201.64 379.976 202.968C379.976 204.408 380.952 205.704 382.536 205.704C383.368 205.704 384.392 205.224 384.808 204.264V201.368ZM231.64 229H230.12L230.072 228.184C229.448 228.904 228.696 229.192 227.704 229.192C226.2 229.192 224.824 228.424 224.824 226.696C224.824 224.664 226.648 224.024 228.408 224.024C228.824 224.024 229.336 224.072 229.992 224.2V223.96C229.992 222.776 229.448 222.088 228.152 222.088C227.224 222.088 226.28 222.44 225.608 222.808L225.144 221.48C226.024 221.064 227.272 220.712 228.408 220.712C230.728 220.712 231.64 221.992 231.64 224.088V229ZM229.992 226.984V225.352C229.432 225.24 229.016 225.208 228.616 225.208C227.672 225.208 226.44 225.464 226.44 226.616C226.44 227.528 227.144 227.88 227.944 227.88C228.728 227.88 229.384 227.496 229.992 226.984ZM235.684 220.904L235.732 222.168C236.212 221.32 236.932 220.712 237.78 220.712C238.132 220.712 238.404 220.744 238.708 220.824L238.372 222.488C238.132 222.36 237.908 222.312 237.604 222.312C236.82 222.312 236.212 222.776 235.764 223.56V229H234.116V220.904H235.684ZM245.145 227.128L245.977 228.344C245.337 228.888 244.409 229.192 243.401 229.192C241.065 229.192 239.257 227.496 239.257 224.952C239.257 222.584 241.081 220.712 243.465 220.712C244.393 220.712 245.209 220.984 245.897 221.48L245.097 222.776C244.633 222.424 244.057 222.2 243.465 222.2C242.057 222.2 240.937 223.432 240.937 224.952C240.937 226.6 242.121 227.704 243.465 227.704C244.009 227.704 244.697 227.48 245.145 227.128ZM252.671 221.64L251.711 222.68C251.343 222.344 250.687 222.056 250.111 222.056C249.455 222.056 249.007 222.44 249.007 223.016C249.007 223.608 249.743 223.896 250.495 224.2C251.551 224.616 252.863 225.192 252.863 226.632C252.863 228.44 251.423 229.192 249.887 229.192C248.735 229.192 247.679 228.744 246.975 227.896L248.063 226.952C248.623 227.528 249.183 227.832 249.871 227.832C250.575 227.832 251.215 227.48 251.215 226.728C251.215 226.104 250.479 225.816 249.679 225.496C248.623 225.064 247.423 224.584 247.423 223.144C247.423 221.496 248.719 220.712 250.111 220.712C251.071 220.712 251.999 221.032 252.671 221.64ZM262.943 222.328H260.719V225.848C260.719 226.056 260.719 226.248 260.735 226.488C260.783 227.256 261.039 227.704 261.759 227.704C262.111 227.704 262.415 227.608 262.671 227.48L263.151 228.776C262.719 229.016 262.095 229.16 261.535 229.16C260.367 229.16 259.631 228.616 259.311 227.784C259.135 227.336 259.071 226.776 259.071 226.184V222.328H258.015V220.904H259.071L259.151 219H260.719V220.904H262.943V222.328ZM268.152 220.712C270.536 220.712 272.312 222.584 272.312 224.952C272.312 227.32 270.536 229.192 268.152 229.192C265.752 229.192 263.992 227.32 263.992 224.952C263.992 222.584 265.752 220.712 268.152 220.712ZM270.632 224.952C270.632 223.432 269.592 222.2 268.152 222.2C266.712 222.2 265.672 223.432 265.672 224.952C265.672 226.456 266.712 227.704 268.152 227.704C269.592 227.704 270.632 226.456 270.632 224.952ZM279.873 217V224.776L279.905 224.792L283.025 220.904H285.009L282.145 224.232L285.249 229H283.265L281.057 225.512L279.873 226.888V229H278.225V217H279.873ZM286.616 220.904H288.184L288.232 222.184C288.84 221.24 289.816 220.712 290.856 220.712C291.928 220.712 292.68 221.096 293.16 221.736C293.72 222.504 293.88 223.576 293.88 224.792V229H292.232V224.936C292.232 224.2 292.2 223.384 291.848 222.824C291.608 222.44 291.176 222.2 290.52 222.2C289.656 222.2 288.792 222.792 288.264 223.64V229H286.616V220.904ZM299.886 220.712C302.27 220.712 304.046 222.584 304.046 224.952C304.046 227.32 302.27 229.192 299.886 229.192C297.486 229.192 295.726 227.32 295.726 224.952C295.726 222.584 297.486 220.712 299.886 220.712ZM302.366 224.952C302.366 223.432 301.326 222.2 299.886 222.2C298.446 222.2 297.406 223.432 297.406 224.952C297.406 226.456 298.446 227.704 299.886 227.704C301.326 227.704 302.366 226.456 302.366 224.952ZM311.512 220.904L313.08 226.872H313.128L314.68 220.904H316.376L314.024 229H312.28L310.648 223.112H310.616L308.952 229H307.144L304.904 220.904H306.68L308.12 226.872H308.152L309.848 220.904H311.512ZM328.25 229H326.73L326.682 228.184C326.058 228.904 325.306 229.192 324.314 229.192C322.81 229.192 321.434 228.424 321.434 226.696C321.434 224.664 323.258 224.024 325.018 224.024C325.434 224.024 325.946 224.072 326.602 224.2V223.96C326.602 222.776 326.058 222.088 324.762 222.088C323.834 222.088 322.89 222.44 322.218 222.808L321.754 221.48C322.634 221.064 323.882 220.712 325.018 220.712C327.338 220.712 328.25 221.992 328.25 224.088V229ZM326.602 226.984V225.352C326.042 225.24 325.626 225.208 325.226 225.208C324.282 225.208 323.05 225.464 323.05 226.616C323.05 227.528 323.754 227.88 324.554 227.88C325.338 227.88 325.994 227.496 326.602 226.984ZM330.725 217H332.373V221.944C332.949 221.128 333.989 220.712 334.917 220.712C337.205 220.712 338.885 222.6 338.885 224.968C338.885 227.144 337.285 229.192 334.885 229.192C333.957 229.192 332.965 228.792 332.325 228.088L332.293 229H330.725V217ZM332.373 223.64V226.536C332.917 227.304 333.813 227.704 334.613 227.704C336.373 227.704 337.205 226.264 337.205 224.936C337.205 223.496 336.229 222.2 334.645 222.2C333.813 222.2 332.789 222.68 332.373 223.64ZM344.323 220.712C346.707 220.712 348.483 222.584 348.483 224.952C348.483 227.32 346.707 229.192 344.323 229.192C341.923 229.192 340.163 227.32 340.163 224.952C340.163 222.584 341.923 220.712 344.323 220.712ZM346.803 224.952C346.803 223.432 345.763 222.2 344.323 222.2C342.883 222.2 341.843 223.432 341.843 224.952C341.843 226.456 342.883 227.704 344.323 227.704C345.763 227.704 346.803 226.456 346.803 224.952ZM357.581 229H356.013L355.965 227.72C355.357 228.664 354.381 229.192 353.341 229.192C352.269 229.192 351.517 228.808 351.037 228.168C350.477 227.4 350.317 226.328 350.317 225.112V220.904H351.965V224.968C351.965 225.704 351.997 226.52 352.349 227.08C352.589 227.464 353.021 227.704 353.677 227.704C354.541 227.704 355.405 227.112 355.933 226.264V220.904H357.581V229ZM364.115 222.328H361.891V225.848C361.891 226.056 361.891 226.248 361.907 226.488C361.955 227.256 362.211 227.704 362.931 227.704C363.283 227.704 363.587 227.608 363.843 227.48L364.323 228.776C363.891 229.016 363.267 229.16 362.707 229.16C361.539 229.16 360.803 228.616 360.483 227.784C360.307 227.336 360.243 226.776 360.243 226.184V222.328H359.187V220.904H360.243L360.323 219H361.891V220.904H364.115V222.328ZM373.771 222.328H371.547V225.848C371.547 226.056 371.547 226.248 371.563 226.488C371.611 227.256 371.867 227.704 372.587 227.704C372.939 227.704 373.243 227.608 373.499 227.48L373.979 228.776C373.547 229.016 372.923 229.16 372.363 229.16C371.195 229.16 370.459 228.616 370.139 227.784C369.963 227.336 369.899 226.776 369.899 226.184V222.328H368.843V220.904H369.899L369.979 219H371.547V220.904H373.771V222.328ZM377.108 217V222.152C377.716 221.24 378.676 220.712 379.7 220.712C380.772 220.712 381.524 221.096 382.004 221.736C382.564 222.504 382.724 223.576 382.724 224.792V229H381.076V224.936C381.076 224.2 381.044 223.384 380.692 222.824C380.452 222.44 380.02 222.2 379.364 222.2C378.5 222.2 377.636 222.792 377.108 223.64V229H375.46V217H377.108ZM386.234 225.368C386.346 226.696 387.242 227.8 388.682 227.8C389.754 227.8 390.538 227.4 391.034 226.52L392.186 227.272C391.354 228.584 390.266 229.192 388.602 229.192C386.058 229.192 384.57 227.352 384.57 224.968C384.57 222.552 386.33 220.712 388.602 220.712C390.778 220.712 392.362 222.312 392.362 224.472C392.362 224.76 392.33 225.128 392.282 225.368H386.234ZM390.65 224.104C390.586 223 389.77 222.088 388.634 222.088C387.386 222.088 386.618 222.968 386.33 224.104H390.65ZM230.894 239.8H234.27C236.014 239.8 238.158 240.712 238.158 243.048C238.158 244.92 236.846 245.88 235.502 246.2L239.022 251H236.878L233.582 246.328H232.606V251H230.894V239.8ZM232.606 241.304V244.824H233.886C235.294 244.824 236.334 244.312 236.334 243.096C236.334 242.024 235.47 241.304 234.19 241.304H232.606ZM242.496 251H240.784V239.8H242.496V251ZM252.399 251L251.567 248.696H246.975L246.143 251H244.255L248.655 239.8H250.111L254.383 251H252.399ZM249.279 242.408L247.535 247.192H251.023L249.295 242.408H249.279ZM262.141 242.04C261.597 241.544 260.685 241.128 259.805 241.128C258.717 241.128 257.933 241.64 257.933 242.568C257.933 243.512 258.973 243.848 260.125 244.248C261.709 244.792 263.581 245.512 263.581 247.704C263.581 250.2 261.341 251.192 259.581 251.192C257.917 251.192 256.669 250.648 255.469 249.464L256.669 248.328C257.677 249.336 258.461 249.672 259.597 249.672C260.685 249.672 261.757 249.144 261.757 247.864C261.757 246.696 260.589 246.28 259.341 245.848C257.821 245.304 256.221 244.552 256.221 242.712C256.221 240.6 257.821 239.608 259.645 239.608C261.021 239.608 262.141 240.008 263.181 240.808L262.141 242.04ZM272.663 251H265.831V239.8H272.663V241.304H267.543V244.472H272.663V245.976H267.543V249.496H272.663V251ZM276.392 245.4C276.392 248.008 278.088 249.672 280.584 249.672C281.448 249.672 282.28 249.384 283.032 248.84L283.96 250.104C282.968 250.808 281.8 251.192 280.552 251.192C277.208 251.192 274.568 248.904 274.568 245.4C274.568 242.104 277.272 239.608 280.584 239.608C281.72 239.608 282.76 239.944 283.688 240.536L282.872 241.848C282.2 241.416 281.416 241.128 280.584 241.128C278.152 241.128 276.392 242.936 276.392 245.4ZM289.718 242.904H291.286L291.334 243.976C291.91 243.128 292.966 242.712 293.91 242.712C296.198 242.712 297.878 244.6 297.878 246.968C297.878 249.144 296.278 251.192 293.878 251.192C292.966 251.192 292.006 250.808 291.366 250.136V255H289.718V242.904ZM291.366 245.64V248.536C291.91 249.304 292.806 249.704 293.606 249.704C295.366 249.704 296.198 248.264 296.198 246.936C296.198 245.496 295.222 244.2 293.638 244.2C292.806 244.2 291.782 244.68 291.366 245.64ZM300.82 247.368C300.932 248.696 301.828 249.8 303.268 249.8C304.34 249.8 305.124 249.4 305.62 248.52L306.772 249.272C305.94 250.584 304.852 251.192 303.188 251.192C300.644 251.192 299.156 249.352 299.156 246.968C299.156 244.552 300.916 242.712 303.188 242.712C305.364 242.712 306.948 244.312 306.948 246.472C306.948 246.76 306.916 247.128 306.868 247.368H300.82ZM305.236 246.104C305.172 245 304.356 244.088 303.22 244.088C301.972 244.088 301.204 244.968 300.916 246.104H305.236ZM310.442 242.904L310.49 244.168C310.97 243.32 311.69 242.712 312.538 242.712C312.89 242.712 313.162 242.744 313.466 242.824L313.13 244.488C312.89 244.36 312.666 244.312 312.362 244.312C311.578 244.312 310.97 244.776 310.522 245.56V251H308.874V242.904H310.442ZM319.679 243.64L318.719 244.68C318.351 244.344 317.695 244.056 317.119 244.056C316.463 244.056 316.015 244.44 316.015 245.016C316.015 245.608 316.751 245.896 317.503 246.2C318.559 246.616 319.871 247.192 319.871 248.632C319.871 250.44 318.431 251.192 316.895 251.192C315.743 251.192 314.687 250.744 313.983 249.896L315.071 248.952C315.631 249.528 316.191 249.832 316.879 249.832C317.583 249.832 318.223 249.48 318.223 248.728C318.223 248.104 317.487 247.816 316.687 247.496C315.631 247.064 314.431 246.584 314.431 245.144C314.431 243.496 315.727 242.712 317.119 242.712C318.079 242.712 319.007 243.032 319.679 243.64ZM325.503 242.712C327.887 242.712 329.663 244.584 329.663 246.952C329.663 249.32 327.887 251.192 325.503 251.192C323.103 251.192 321.343 249.32 321.343 246.952C321.343 244.584 323.103 242.712 325.503 242.712ZM327.983 246.952C327.983 245.432 326.943 244.2 325.503 244.2C324.063 244.2 323.023 245.432 323.023 246.952C323.023 248.456 324.063 249.704 325.503 249.704C326.943 249.704 327.983 248.456 327.983 246.952ZM331.577 242.904H333.145L333.193 244.184C333.801 243.24 334.777 242.712 335.817 242.712C336.889 242.712 337.641 243.096 338.121 243.736C338.681 244.504 338.841 245.576 338.841 246.792V251H337.193V246.936C337.193 246.2 337.161 245.384 336.809 244.824C336.569 244.44 336.137 244.2 335.481 244.2C334.617 244.2 333.753 244.792 333.225 245.64V251H331.577V242.904ZM347.695 251H346.175L346.127 250.184C345.503 250.904 344.751 251.192 343.759 251.192C342.255 251.192 340.879 250.424 340.879 248.696C340.879 246.664 342.703 246.024 344.463 246.024C344.879 246.024 345.391 246.072 346.047 246.2V245.96C346.047 244.776 345.503 244.088 344.207 244.088C343.279 244.088 342.335 244.44 341.663 244.808L341.199 243.48C342.079 243.064 343.327 242.712 344.463 242.712C346.783 242.712 347.695 243.992 347.695 246.088V251ZM346.047 248.984V247.352C345.487 247.24 345.071 247.208 344.671 247.208C343.727 247.208 342.495 247.464 342.495 248.616C342.495 249.528 343.199 249.88 343.999 249.88C344.783 249.88 345.439 249.496 346.047 248.984ZM351.819 239V251H350.171V239H351.819ZM356.022 251H354.374V242.904H356.022V251ZM356.022 241.432H354.374V239.72H356.022V241.432ZM362.545 244.328H360.321V247.848C360.321 248.056 360.321 248.248 360.337 248.488C360.385 249.256 360.641 249.704 361.361 249.704C361.713 249.704 362.017 249.608 362.273 249.48L362.753 250.776C362.321 251.016 361.697 251.16 361.137 251.16C359.969 251.16 359.233 250.616 358.913 249.784C358.737 249.336 358.673 248.776 358.673 248.184V244.328H357.617V242.904H358.673L358.753 241H360.321V242.904H362.545V244.328ZM365.881 251H364.233V242.904H365.881V251ZM365.881 241.432H364.233V239.72H365.881V241.432ZM369.46 247.368C369.572 248.696 370.468 249.8 371.908 249.8C372.98 249.8 373.764 249.4 374.26 248.52L375.412 249.272C374.58 250.584 373.492 251.192 371.828 251.192C369.284 251.192 367.796 249.352 367.796 246.968C367.796 244.552 369.556 242.712 371.828 242.712C374.004 242.712 375.588 244.312 375.588 246.472C375.588 246.76 375.556 247.128 375.508 247.368H369.46ZM373.876 246.104C373.812 245 372.996 244.088 371.86 244.088C370.612 244.088 369.844 244.968 369.556 246.104H373.876ZM382.538 243.64L381.578 244.68C381.21 244.344 380.554 244.056 379.978 244.056C379.322 244.056 378.874 244.44 378.874 245.016C378.874 245.608 379.61 245.896 380.362 246.2C381.418 246.616 382.73 247.192 382.73 248.632C382.73 250.44 381.29 251.192 379.754 251.192C378.602 251.192 377.546 250.744 376.842 249.896L377.93 248.952C378.49 249.528 379.05 249.832 379.738 249.832C380.442 249.832 381.082 249.48 381.082 248.728C381.082 248.104 380.346 247.816 379.546 247.496C378.49 247.064 377.29 246.584 377.29 245.144C377.29 243.496 378.586 242.712 379.978 242.712C380.938 242.712 381.866 243.032 382.538 243.64ZM386.491 251H384.618V249.016H386.491V251Z" fill="#666B72"/>
</svg>
