<svg width="125" height="16" viewBox="0 0 125 16" fill="none" xmlns="http://www.w3.org/2000/svg">
<path d="M0 8C0 12.4183 3.58172 16 8 16C12.4183 16 16 12.4183 16 8C16 3.58172 12.4183 0 8 0C3.58172 0 0 3.58172 0 8ZM109 8C109 12.4183 112.582 16 117 16C121.418 16 125 12.4183 125 8C125 3.58172 121.418 0 117 0C112.582 0 109 3.58172 109 8ZM8 9.5H117V6.5H8V9.5Z" fill="url(#paint0_linear_1_8827)"/>
<defs>
<linearGradient id="paint0_linear_1_8827" x1="8" y1="8.5" x2="117" y2="8.5" gradientUnits="userSpaceOnUse">
<stop stop-color="#309759"/>
<stop offset="1" stop-color="#FF3636"/>
</linearGradient>
</defs>
</svg>
